<?xml version="1.0" encoding="UTF-8"?>
<svg version="1.1" xmlns="http://www.w3.org/2000/svg" width="1143" height="1143">
<path d="M0 0 C3.74769449 0.00256781 7.49538501 -0.00073536 11.24307891 -0.00324333 C17.79276494 -0.00683397 24.3424427 -0.00675851 30.89212909 -0.00419617 C40.63220036 -0.00039616 50.37226472 -0.00235649 60.11233595 -0.00540448 C77.51363226 -0.01065764 94.91492489 -0.01021884 112.31622155 -0.00732557 C127.54538569 -0.00480601 142.77454849 -0.00415517 158.0037128 -0.00534821 C159.01548258 -0.0054246 160.02725236 -0.00550098 161.06968182 -0.00557968 C165.17721186 -0.00589104 169.28474189 -0.00620944 173.39227192 -0.00653944 C211.89350694 -0.00959576 250.39473962 -0.00682929 288.89597428 -0.00144255 C323.06981193 0.0033024 357.24364586 0.00287842 391.41748348 -0.00190354 C429.84860892 -0.0072633 468.2797323 -0.00937861 506.71085807 -0.00629128 C510.81103979 -0.00597058 514.91122151 -0.00565774 519.01140323 -0.00534821 C520.02090664 -0.00526913 521.03041005 -0.00519006 522.07050448 -0.00510858 C537.28594638 -0.00397319 552.50138679 -0.00529751 567.71682849 -0.00782776 C585.02577321 -0.01069188 602.33471369 -0.00996186 619.64365788 -0.00454702 C629.31966489 -0.00161952 638.99566269 -0.00140631 648.67166945 -0.00519319 C655.14751963 -0.00744718 661.62336249 -0.0060192 668.09921159 -0.00168843 C671.78035 0.00067382 675.46147022 0.00153862 679.14260801 -0.00209441 C691.7721436 -0.01341185 704.40295619 -0.01276154 717.02560821 0.44890403 C717.8531588 0.47089118 718.68070938 0.49287834 719.53333726 0.51553177 C724.72590955 0.75144034 728.39128132 1.87761605 733.0744659 4.12846755 C736.10961541 4.88567075 736.10961541 4.88567075 739.0119659 5.31596755 C739.96973934 5.47452224 740.92751277 5.63307693 741.91430965 5.7964363 C742.62716121 5.90600662 743.34001277 6.01557693 744.0744659 6.12846755 C744.0744659 6.78846755 744.0744659 7.44846755 744.0744659 8.12846755 C745.7244659 8.12846755 747.3744659 8.12846755 749.0744659 8.12846755 C749.0744659 8.78846755 749.0744659 9.44846755 749.0744659 10.12846755 C751.0544659 10.12846755 753.0344659 10.12846755 755.0744659 10.12846755 C755.0744659 10.78846755 755.0744659 11.44846755 755.0744659 12.12846755 C758.00142779 12.76874047 760.69429372 13.16052761 763.6994659 13.31596755 C768.60221606 13.8658958 772.37617639 16.26776979 776.5588409 18.75346755 C778.79181654 19.97397598 780.59222768 20.66449779 783.0744659 21.12846755 C783.0744659 21.78846755 783.0744659 22.44846755 783.0744659 23.12846755 C784.3944659 23.12846755 785.7144659 23.12846755 787.0744659 23.12846755 C787.0744659 23.78846755 787.0744659 24.44846755 787.0744659 25.12846755 C787.8582159 25.27284255 788.6419659 25.41721755 789.4494659 25.56596755 C792.0744659 26.12846755 792.0744659 26.12846755 794.0744659 27.12846755 C794.0744659 27.78846755 794.0744659 28.44846755 794.0744659 29.12846755 C795.3944659 29.12846755 796.7144659 29.12846755 798.0744659 29.12846755 C798.0744659 29.78846755 798.0744659 30.44846755 798.0744659 31.12846755 C799.3944659 31.45846755 800.7144659 31.78846755 802.0744659 32.12846755 C802.0744659 32.78846755 802.0744659 33.44846755 802.0744659 34.12846755 C802.8582159 34.27284255 803.6419659 34.41721755 804.4494659 34.56596755 C807.0744659 35.12846755 807.0744659 35.12846755 809.0744659 36.12846755 C809.0744659 36.78846755 809.0744659 37.44846755 809.0744659 38.12846755 C810.3944659 38.12846755 811.7144659 38.12846755 813.0744659 38.12846755 C813.0744659 38.78846755 813.0744659 39.44846755 813.0744659 40.12846755 C813.8169659 40.39659255 814.5594659 40.66471755 815.3244659 40.94096755 C817.96508539 42.08123506 819.92999434 43.22227061 822.0744659 45.12846755 C822.0744659 45.78846755 822.0744659 46.44846755 822.0744659 47.12846755 C822.7344659 47.31409255 823.3944659 47.49971755 824.0744659 47.69096755 C828.34351858 49.7365553 831.81610296 52.70031399 835.0744659 56.12846755 C835.0744659 56.78846755 835.0744659 57.44846755 835.0744659 58.12846755 C835.7344659 58.12846755 836.3944659 58.12846755 837.0744659 58.12846755 C837.0744659 58.78846755 837.0744659 59.44846755 837.0744659 60.12846755 C837.7344659 60.12846755 838.3944659 60.12846755 839.0744659 60.12846755 C839.0744659 60.78846755 839.0744659 61.44846755 839.0744659 62.12846755 C840.0644659 62.12846755 841.0544659 62.12846755 842.0744659 62.12846755 C844.2619659 63.94096755 844.2619659 63.94096755 846.0744659 66.12846755 C846.0744659 67.11846755 846.0744659 68.10846755 846.0744659 69.12846755 C847.3944659 69.78846755 848.7144659 70.44846755 850.0744659 71.12846755 C850.0744659 71.78846755 850.0744659 72.44846755 850.0744659 73.12846755 C850.7344659 73.12846755 851.3944659 73.12846755 852.0744659 73.12846755 C852.0744659 73.78846755 852.0744659 74.44846755 852.0744659 75.12846755 C853.0335284 75.49971755 853.0335284 75.49971755 854.0119659 75.87846755 C856.0744659 77.12846755 856.0744659 77.12846755 856.8244659 79.25346755 C856.9069659 79.87221755 856.9894659 80.49096755 857.0744659 81.12846755 C857.7344659 81.12846755 858.3944659 81.12846755 859.0744659 81.12846755 C859.0744659 81.78846755 859.0744659 82.44846755 859.0744659 83.12846755 C859.7344659 83.12846755 860.3944659 83.12846755 861.0744659 83.12846755 C861.0744659 84.11846755 861.0744659 85.10846755 861.0744659 86.12846755 C861.7344659 86.12846755 862.3944659 86.12846755 863.0744659 86.12846755 C863.0744659 86.78846755 863.0744659 87.44846755 863.0744659 88.12846755 C864.0644659 88.45846755 865.0544659 88.78846755 866.0744659 89.12846755 C866.0744659 90.11846755 866.0744659 91.10846755 866.0744659 92.12846755 C866.7344659 92.12846755 867.3944659 92.12846755 868.0744659 92.12846755 C868.0744659 92.78846755 868.0744659 93.44846755 868.0744659 94.12846755 C868.7344659 94.12846755 869.3944659 94.12846755 870.0744659 94.12846755 C870.7344659 96.43846755 871.3944659 98.74846755 872.0744659 101.12846755 C872.7344659 101.12846755 873.3944659 101.12846755 874.0744659 101.12846755 C874.0744659 101.78846755 874.0744659 102.44846755 874.0744659 103.12846755 C874.7344659 103.12846755 875.3944659 103.12846755 876.0744659 103.12846755 C880.54244607 108.77223199 885.0744659 114.75412649 885.0744659 122.12846755 C885.7344659 122.12846755 886.3944659 122.12846755 887.0744659 122.12846755 C887.0744659 123.77846755 887.0744659 125.42846755 887.0744659 127.12846755 C887.7344659 127.12846755 888.3944659 127.12846755 889.0744659 127.12846755 C889.0744659 128.44846755 889.0744659 129.76846755 889.0744659 131.12846755 C890.0644659 131.45846755 891.0544659 131.78846755 892.0744659 132.12846755 C894.02988778 135.11305885 894.0744659 136.39261546 894.0744659 140.12846755 C894.7344659 140.12846755 895.3944659 140.12846755 896.0744659 140.12846755 C896.0744659 141.44846755 896.0744659 142.76846755 896.0744659 144.12846755 C896.7344659 144.12846755 897.3944659 144.12846755 898.0744659 144.12846755 C898.27942684 144.83874099 898.48438777 145.54901443 898.69555965 146.2808113 C898.96497371 147.19991287 899.23438777 148.11901443 899.5119659 149.06596755 C899.9122198 150.44075271 899.9122198 150.44075271 900.32055965 151.8433113 C900.86472641 154.06871686 900.86472641 154.06871686 902.0744659 155.12846755 C902.58931294 157.34966481 903.06121205 159.58088239 903.5119659 161.81596755 C904.43533217 166.39412388 905.59732625 170.70322912 907.0744659 175.12846755 C907.4182159 177.2886238 907.4182159 177.2886238 907.5744659 179.19096755 C907.8712414 182.95000613 907.8712414 182.95000613 909.09011917 185.5273142 C910.18896866 188.4310431 910.32429829 190.58729511 910.32401356 193.68442124 C910.33113978 195.35610413 910.33113978 195.35610413 910.33840996 197.06155839 C910.33344178 198.28319762 910.3284736 199.50483684 910.32335487 200.76349544 C910.32596215 202.06871321 910.32856944 203.37393097 910.33125573 204.71870079 C910.33823612 208.35603348 910.33270318 211.99325758 910.32519965 215.63058529 C910.31924021 219.58220094 910.32485584 223.53380254 910.32902047 227.48541814 C910.33471431 234.41583864 910.3329451 241.34622642 910.3263351 248.27664565 C910.31653313 258.58207821 910.31814579 268.88748672 910.3220854 279.19292204 C910.32836695 296.52756904 910.32518168 313.86220245 910.31649127 331.19684791 C910.30788541 348.36627388 910.30297091 365.53569376 910.30315891 382.70512199 C910.30316655 383.77197506 910.3031742 384.83882813 910.30318207 385.93801009 C910.30322298 390.26836045 910.30328859 394.59871082 910.30338789 398.92906119 C910.30429448 439.57210543 910.29434103 480.21514036 910.27895822 520.85818138 C910.26533088 556.99637383 910.25909704 593.13455966 910.25976863 629.27275466 C910.25980904 631.59350433 910.2598494 633.914254 910.25988971 636.23500367 C910.25991006 637.38231876 910.25993041 638.52963385 910.25995138 639.71171607 C910.26005217 645.48669935 910.26014275 651.26168263 910.26022163 657.03666591 C910.26023834 658.17589075 910.26025505 659.31511559 910.26027227 660.48886239 C910.26063713 690.65533102 910.25610228 720.82179882 910.24989506 750.98826676 C910.24967479 752.06079385 910.24945452 753.13332093 910.24922757 754.23834884 C910.24833931 758.5515603 910.24745092 762.86477176 910.24653662 767.17798321 C910.24337246 782.20694823 910.24186682 797.23591259 910.24142513 812.26487791 C910.24082902 831.62651122 910.23685414 850.98813906 910.22699367 870.34977003 C910.22186482 880.59847142 910.2194739 890.84716478 910.22098985 901.0958674 C910.22172116 907.92974125 910.21884407 914.76360724 910.21294604 921.59747858 C910.20967839 925.49895104 910.20802887 929.4004066 910.21070664 933.3018799 C910.21354067 937.49159024 910.20874641 941.68125563 910.20310035 945.87096309 C910.20515567 947.09962582 910.20721099 948.32828854 910.20932859 949.59418347 C910.20656885 950.70112817 910.2038091 951.80807288 910.20096573 952.94856136 C910.20067423 953.90797135 910.20038273 954.86738134 910.2000824 955.85586435 C910.0744659 958.12846755 910.0744659 958.12846755 909.0744659 960.12846755 C908.4144659 960.12846755 907.7544659 960.12846755 907.0744659 960.12846755 C907.1363409 961.89190505 907.1363409 961.89190505 907.1994659 963.69096755 C907.1994659 968.86774267 905.73056911 973.27594084 904.0119659 978.12846755 C902.97278861 981.17231973 902.97278861 981.17231973 902.5744659 984.62846755 C902.09216527 988.00457194 901.2432829 990.93370107 900.0744659 994.12846755 C899.4144659 994.12846755 898.7544659 994.12846755 898.0744659 994.12846755 C898.0744659 995.77846755 898.0744659 997.42846755 898.0744659 999.12846755 C897.4144659 999.12846755 896.7544659 999.12846755 896.0744659 999.12846755 C896.0744659 1000.44846755 896.0744659 1001.76846755 896.0744659 1003.12846755 C895.4144659 1003.12846755 894.7544659 1003.12846755 894.0744659 1003.12846755 C893.8888409 1004.24221755 893.8888409 1004.24221755 893.6994659 1005.37846755 C893.11959889 1007.9298824 892.33737851 1009.85522486 891.0744659 1012.12846755 C890.4144659 1012.12846755 889.7544659 1012.12846755 889.0744659 1012.12846755 C889.0744659 1013.44846755 889.0744659 1014.76846755 889.0744659 1016.12846755 C888.4144659 1016.12846755 887.7544659 1016.12846755 887.0744659 1016.12846755 C887.0744659 1017.77846755 887.0744659 1019.42846755 887.0744659 1021.12846755 C886.4144659 1021.12846755 885.7544659 1021.12846755 885.0744659 1021.12846755 C885.0744659 1022.44846755 885.0744659 1023.76846755 885.0744659 1025.12846755 C884.4144659 1025.12846755 883.7544659 1025.12846755 883.0744659 1025.12846755 C883.0744659 1026.44846755 883.0744659 1027.76846755 883.0744659 1029.12846755 C882.4144659 1029.12846755 881.7544659 1029.12846755 881.0744659 1029.12846755 C880.9507159 1029.87096755 880.8269659 1030.61346755 880.6994659 1031.37846755 C880.11959889 1033.9298824 879.33737851 1035.85522486 878.0744659 1038.12846755 C877.4144659 1038.12846755 876.7544659 1038.12846755 876.0744659 1038.12846755 C876.0744659 1038.78846755 876.0744659 1039.44846755 876.0744659 1040.12846755 C875.4144659 1040.12846755 874.7544659 1040.12846755 874.0744659 1040.12846755 C874.0744659 1040.78846755 874.0744659 1041.44846755 874.0744659 1042.12846755 C873.4144659 1042.12846755 872.7544659 1042.12846755 872.0744659 1042.12846755 C871.9300909 1042.72659255 871.7857159 1043.32471755 871.6369659 1043.94096755 C871.187222 1045.6899716 870.64554249 1047.41523778 870.0744659 1049.12846755 C869.4144659 1049.12846755 868.7544659 1049.12846755 868.0744659 1049.12846755 C868.0744659 1049.78846755 868.0744659 1050.44846755 868.0744659 1051.12846755 C867.4144659 1051.12846755 866.7544659 1051.12846755 866.0744659 1051.12846755 C865.7444659 1052.44846755 865.4144659 1053.76846755 865.0744659 1055.12846755 C864.4144659 1055.12846755 863.7544659 1055.12846755 863.0744659 1055.12846755 C862.9300909 1055.74721755 862.7857159 1056.36596755 862.6369659 1057.00346755 C862.0744659 1059.12846755 862.0744659 1059.12846755 861.0744659 1061.12846755 C860.4144659 1061.12846755 859.7544659 1061.12846755 859.0744659 1061.12846755 C858.8166534 1061.7008113 858.5588409 1062.27315505 858.2932159 1062.86284255 C856.96080648 1065.3397575 855.42390472 1067.26258416 853.5744659 1069.37846755 C852.9660284 1070.0848738 852.3575909 1070.79128005 851.7307159 1071.51909255 C850.0744659 1073.12846755 850.0744659 1073.12846755 848.0744659 1073.12846755 C848.0744659 1074.11846755 848.0744659 1075.10846755 848.0744659 1076.12846755 C846.7544659 1076.45846755 845.4344659 1076.78846755 844.0744659 1077.12846755 C844.0744659 1077.78846755 844.0744659 1078.44846755 844.0744659 1079.12846755 C843.4144659 1079.12846755 842.7544659 1079.12846755 842.0744659 1079.12846755 C842.0744659 1079.78846755 842.0744659 1080.44846755 842.0744659 1081.12846755 C841.4144659 1081.12846755 840.7544659 1081.12846755 840.0744659 1081.12846755 C840.0744659 1081.78846755 840.0744659 1082.44846755 840.0744659 1083.12846755 C839.0844659 1083.12846755 838.0944659 1083.12846755 837.0744659 1083.12846755 C836.8475909 1083.68534255 836.6207159 1084.24221755 836.3869659 1084.81596755 C834.68828612 1087.80887955 832.65373903 1089.86373993 830.0744659 1092.12846755 C829.0844659 1092.12846755 828.0944659 1092.12846755 827.0744659 1092.12846755 C827.0744659 1092.78846755 827.0744659 1093.44846755 827.0744659 1094.12846755 C826.0844659 1094.12846755 825.0944659 1094.12846755 824.0744659 1094.12846755 C824.0744659 1094.78846755 824.0744659 1095.44846755 824.0744659 1096.12846755 C823.4144659 1096.12846755 822.7544659 1096.12846755 822.0744659 1096.12846755 C821.8475909 1096.72659255 821.6207159 1097.32471755 821.3869659 1097.94096755 C819.71837548 1100.72195159 817.9460827 1101.69265915 815.0744659 1103.12846755 C814.4144659 1103.12846755 813.7544659 1103.12846755 813.0744659 1103.12846755 C813.0744659 1103.78846755 813.0744659 1104.44846755 813.0744659 1105.12846755 C811.7544659 1105.12846755 810.4344659 1105.12846755 809.0744659 1105.12846755 C809.0744659 1105.78846755 809.0744659 1106.44846755 809.0744659 1107.12846755 C806.0744659 1109.12846755 806.0744659 1109.12846755 802.0744659 1109.12846755 C802.0744659 1109.78846755 802.0744659 1110.44846755 802.0744659 1111.12846755 C800.4650909 1112.34721755 800.4650909 1112.34721755 798.3244659 1113.62846755 C797.28032527 1114.2626863 797.28032527 1114.2626863 796.2150909 1114.90971755 C790.56164539 1118.12846755 790.56164539 1118.12846755 787.0744659 1118.12846755 C787.0744659 1118.78846755 787.0744659 1119.44846755 787.0744659 1120.12846755 C783.70349206 1121.62667815 781.87004471 1122.12846755 778.0744659 1122.12846755 C778.0744659 1122.78846755 778.0744659 1123.44846755 778.0744659 1124.12846755 C777.46860652 1124.35920974 776.86274715 1124.58995193 776.2385284 1124.8276863 C771.67556561 1126.60373182 767.32239877 1128.48819847 763.0119659 1130.81596755 C758.97465022 1132.89770845 755.77340871 1133.56027121 751.28149715 1133.8198738 C748.7618018 1134.17218519 746.97082728 1134.99480406 744.6994659 1136.12846755 C740.39076288 1138.23009018 736.60966706 1138.63582728 731.8479034 1138.7573738 C728.96040355 1138.98262046 728.96040355 1138.98262046 726.24749765 1140.60918819 C720.63165881 1143.06405568 714.56108562 1142.70245819 708.53252044 1142.80803108 C707.19243 1142.8406519 705.85235976 1142.87411266 704.51230997 1142.90836267 C690.94871799 1143.23238617 677.38125372 1143.27098595 663.81442173 1143.25693511 C660.19510373 1143.25433907 656.57578954 1143.25768113 652.95647213 1143.26017844 C646.6474533 1143.26374934 640.33844306 1143.26370613 634.02942386 1143.26113128 C624.64695287 1143.25731269 615.26448899 1143.25930104 605.88201803 1143.26233959 C589.11484466 1143.26757849 572.34767514 1143.26715973 555.58050142 1143.26426068 C540.90710817 1143.26173637 526.23371633 1143.26109248 511.56032291 1143.26228332 C510.09534932 1143.2623979 510.09534932 1143.2623979 508.6007803 1143.26251479 C504.63538008 1143.26282617 500.66997986 1143.26314458 496.70457963 1143.26347455 C459.57384563 1143.26652744 422.44311405 1143.26376978 385.31238042 1143.25837766 C352.38549941 1143.25363236 319.45862227 1143.2540577 286.53174129 1143.25883865 C249.46358939 1143.26420302 212.39543964 1143.26631122 175.3272874 1143.26322638 C171.36978931 1143.26290571 167.41229122 1143.26259287 163.45479312 1143.26228332 C162.48048971 1143.26220424 161.5061863 1143.26212516 160.50235854 1143.26204369 C145.84410143 1143.26091027 131.18584588 1143.26222889 116.52758899 1143.26476287 C99.84713366 1143.26763221 83.16668274 1143.26688591 66.48622795 1143.26148213 C57.17178094 1143.25856347 47.85734348 1143.25832842 38.54289673 1143.2621283 C32.29819568 1143.26439309 26.05350219 1143.26293533 19.80880226 1143.25862353 C16.26642357 1143.25627591 12.72406365 1143.25536456 9.18168565 1143.25902952 C-4.86124519 1143.27034873 -18.89976879 1143.16987583 -32.93815217 1142.80803108 C-34.15494721 1142.78604392 -35.37174226 1142.76405677 -36.62540988 1142.74140334 C-42.5080522 1142.56027131 -46.80010225 1142.29904091 -51.9255341 1139.12846755 C-54.58738913 1138.62567272 -57.12080037 1138.22400145 -59.8005341 1137.94096755 C-60.48889348 1137.85911209 -61.17725285 1137.77725662 -61.8864716 1137.69292068 C-63.56500767 1137.49476017 -65.24513892 1137.31018968 -66.9255341 1137.12846755 C-66.9255341 1136.46846755 -66.9255341 1135.80846755 -66.9255341 1135.12846755 C-69.76029563 1134.5271545 -72.54718043 1134.05076176 -75.4255341 1133.69096755 C-78.56558801 1133.18631603 -81.04640508 1132.43716256 -83.9255341 1131.12846755 C-83.9255341 1130.46846755 -83.9255341 1129.80846755 -83.9255341 1129.12846755 C-84.7092841 1129.23159255 -85.4930341 1129.33471755 -86.3005341 1129.44096755 C-91.49183769 1128.99344138 -95.41685675 1126.62338783 -99.9255341 1124.12846755 C-99.9255341 1123.46846755 -99.9255341 1122.80846755 -99.9255341 1122.12846755 C-101.2455341 1122.12846755 -102.5655341 1122.12846755 -103.9255341 1122.12846755 C-103.9255341 1121.46846755 -103.9255341 1120.80846755 -103.9255341 1120.12846755 C-104.6061591 1120.02534255 -105.2867841 1119.92221755 -105.9880341 1119.81596755 C-112.39099327 1118.31740264 -117.21821311 1115.37554741 -122.57006535 1111.69096755 C-126.22447607 1109.26681451 -130.06006294 1107.19370746 -133.9255341 1105.12846755 C-133.9255341 1104.46846755 -133.9255341 1103.80846755 -133.9255341 1103.12846755 C-134.8536591 1102.86034255 -135.7817841 1102.59221755 -136.7380341 1102.31596755 C-139.68334435 1101.21869511 -141.07571287 1100.59489586 -142.9255341 1098.12846755 C-142.9255341 1097.46846755 -142.9255341 1096.80846755 -142.9255341 1096.12846755 C-143.46694035 1096.06530349 -144.0083466 1096.00213943 -144.5661591 1095.9370613 C-147.91431607 1094.78959691 -150.13823159 1092.5651102 -152.6755341 1090.19096755 C-153.18213566 1089.73528396 -153.68873723 1089.27960037 -154.21069035 1088.81010818 C-155.49339179 1087.62940053 -156.71488603 1086.38294943 -157.9255341 1085.12846755 C-157.9255341 1084.46846755 -157.9255341 1083.80846755 -157.9255341 1083.12846755 C-158.5442841 1082.98409255 -159.1630341 1082.83971755 -159.8005341 1082.69096755 C-161.9255341 1082.12846755 -161.9255341 1082.12846755 -163.9255341 1081.12846755 C-163.9255341 1080.46846755 -163.9255341 1079.80846755 -163.9255341 1079.12846755 C-164.5855341 1079.12846755 -165.2455341 1079.12846755 -165.9255341 1079.12846755 C-167.255745 1077.61619689 -168.51581001 1076.04177731 -169.7380341 1074.44096755 C-173.16371544 1070.04715888 -176.66689916 1066.23133457 -180.7380341 1062.44096755 C-181.9255341 1061.12846755 -181.9255341 1061.12846755 -181.9255341 1059.12846755 C-182.5855341 1059.12846755 -183.2455341 1059.12846755 -183.9255341 1059.12846755 C-184.4411591 1058.15909255 -184.9567841 1057.18971755 -185.4880341 1056.19096755 C-187.76039607 1052.1630624 -190.5824379 1048.69202014 -193.5349091 1045.14409255 C-194.9255341 1043.12846755 -194.9255341 1043.12846755 -194.9255341 1040.12846755 C-195.5855341 1040.12846755 -196.2455341 1040.12846755 -196.9255341 1040.12846755 C-196.9255341 1039.46846755 -196.9255341 1038.80846755 -196.9255341 1038.12846755 C-197.5855341 1038.12846755 -198.2455341 1038.12846755 -198.9255341 1038.12846755 C-202.9255341 1031.37846755 -202.9255341 1031.37846755 -202.9255341 1029.12846755 C-203.5855341 1029.12846755 -204.2455341 1029.12846755 -204.9255341 1029.12846755 C-207.59144347 1024.57420571 -208.24116592 1021.38899792 -207.9255341 1016.12846755 C-208.5855341 1016.12846755 -209.2455341 1016.12846755 -209.9255341 1016.12846755 C-209.9255341 1014.80846755 -209.9255341 1013.48846755 -209.9255341 1012.12846755 C-210.5855341 1012.12846755 -211.2455341 1012.12846755 -211.9255341 1012.12846755 C-211.9255341 1010.80846755 -211.9255341 1009.48846755 -211.9255341 1008.12846755 C-212.9155341 1007.79846755 -213.9055341 1007.46846755 -214.9255341 1007.12846755 C-214.9255341 1005.80846755 -214.9255341 1004.48846755 -214.9255341 1003.12846755 C-215.5855341 1003.12846755 -216.2455341 1003.12846755 -216.9255341 1003.12846755 C-216.9255341 1001.80846755 -216.9255341 1000.48846755 -216.9255341 999.12846755 C-217.5855341 999.12846755 -218.2455341 999.12846755 -218.9255341 999.12846755 C-224.60452589 985.42721066 -224.60452589 985.42721066 -225.4255341 978.06596755 C-225.78273652 974.2331927 -225.78273652 974.2331927 -226.9255341 971.12846755 C-227.7804599 968.56369016 -228.19059955 966.47399383 -228.4880341 963.81596755 C-228.51568002 960.33203089 -228.51568002 960.33203089 -229.9255341 959.12846755 C-229.99797463 957.10882557 -230.00930598 955.08679632 -229.9880341 953.06596755 C-229.97901066 951.96124099 -229.96998723 950.85651443 -229.96069035 949.7183113 C-229.94908879 948.86366287 -229.93748723 948.00901443 -229.9255341 947.12846755 C-230.5855341 947.12846755 -231.2455341 947.12846755 -231.9255341 947.12846755 C-232.72250189 943.62026748 -233.05061761 940.38679725 -233.05088327 936.79216551 C-233.05338678 935.7268066 -233.0558903 934.66144768 -233.05846969 933.56380516 C-233.05612852 932.39711026 -233.05378735 931.23041537 -233.05137524 930.02836608 C-233.05282868 928.78096182 -233.05428212 927.53355757 -233.05577961 926.24835318 C-233.05968483 922.77314381 -233.05733782 919.29796211 -233.05400166 915.82275318 C-233.05147125 912.04675056 -233.05472238 908.27075227 -233.05724499 904.49475026 C-233.06086264 897.87245952 -233.06074345 891.25017693 -233.05819783 884.62788581 C-233.05442264 874.78025419 -233.05634531 864.93262947 -233.05940614 855.08499791 C-233.0646787 837.49822032 -233.06421271 819.91144636 -233.06132722 802.32466842 C-233.05881405 786.93190822 -233.05815385 771.53914936 -233.05934987 756.146389 C-233.05942625 755.12630125 -233.05950264 754.10621349 -233.05958134 753.05521398 C-233.05989267 748.91455155 -233.06021106 744.77388911 -233.0605411 740.63322667 C-233.06360208 701.76703498 -233.06082366 662.9008456 -233.0554442 624.03465426 C-233.05069981 589.49414677 -233.0511218 554.95364298 -233.0559052 520.41313552 C-233.06125882 481.62515654 -233.06338359 442.8371796 -233.06029293 404.04920029 C-233.05997221 399.91473658 -233.05965937 395.78027288 -233.05934987 391.64580917 C-233.05927079 390.62776657 -233.05919171 389.60972398 -233.05911024 388.56083161 C-233.05797221 373.17942281 -233.05930411 357.79801549 -233.06182942 342.4166069 C-233.06468664 324.9261623 -233.06397827 307.43572191 -233.05854868 289.94527783 C-233.05560936 280.15351341 -233.05542508 270.36175808 -233.05919485 260.56999389 C-233.06143462 254.03176793 -233.06004639 247.49354927 -233.05569008 240.95532439 C-233.05330817 237.2284528 -233.05250452 233.5015993 -233.05609606 229.77472826 C-233.05992516 225.76044827 -233.05603087 221.74621269 -233.05137524 217.73193359 C-233.05371641 216.57460336 -233.05605758 215.41727313 -233.05846969 214.22487229 C-233.0442299 208.10824965 -232.729572 202.19350448 -231.9255341 196.12846755 C-231.2655341 196.12846755 -230.6055341 196.12846755 -229.9255341 196.12846755 C-229.93713566 195.27381912 -229.94873723 194.41917068 -229.96069035 193.5386238 C-229.97422551 191.88153396 -229.97422551 191.88153396 -229.9880341 190.19096755 C-229.99963566 189.08881912 -230.01123723 187.98667068 -230.02319035 186.8511238 C-229.9255341 184.12846755 -229.9255341 184.12846755 -228.9255341 183.12846755 C-228.55384928 180.96804955 -228.22762019 178.79971133 -227.9255341 176.62846755 C-227.03664521 170.23957867 -227.03664521 170.23957867 -225.9255341 169.12846755 C-225.8017841 167.93221755 -225.6780341 166.73596755 -225.5505341 165.50346755 C-225.08577889 161.31317456 -223.66671855 157.97358322 -221.9255341 154.12846755 C-221.23412889 151.34958143 -221.23412889 151.34958143 -220.9255341 149.12846755 C-220.2655341 149.12846755 -219.6055341 149.12846755 -218.9255341 149.12846755 C-218.9255341 147.47846755 -218.9255341 145.82846755 -218.9255341 144.12846755 C-218.2655341 144.12846755 -217.6055341 144.12846755 -216.9255341 144.12846755 C-216.9255341 142.80846755 -216.9255341 141.48846755 -216.9255341 140.12846755 C-216.2655341 140.12846755 -215.6055341 140.12846755 -214.9255341 140.12846755 C-214.5955341 138.47846755 -214.2655341 136.82846755 -213.9255341 135.12846755 C-213.2655341 135.12846755 -212.6055341 135.12846755 -211.9255341 135.12846755 C-211.9255341 133.80846755 -211.9255341 132.48846755 -211.9255341 131.12846755 C-211.2655341 131.12846755 -210.6055341 131.12846755 -209.9255341 131.12846755 C-209.9255341 129.80846755 -209.9255341 128.48846755 -209.9255341 127.12846755 C-209.2655341 127.12846755 -208.6055341 127.12846755 -207.9255341 127.12846755 C-208.02994816 125.83295974 -208.02994816 125.83295974 -208.1364716 124.51128005 C-207.88381441 120.45940737 -206.69368414 118.42376006 -204.5505341 115.00346755 C-201.55186593 110.16865854 -201.55186593 110.16865854 -198.9255341 105.12846755 C-198.2655341 105.12846755 -197.6055341 105.12846755 -196.9255341 105.12846755 C-196.9255341 104.46846755 -196.9255341 103.80846755 -196.9255341 103.12846755 C-196.2655341 103.12846755 -195.6055341 103.12846755 -194.9255341 103.12846755 C-194.9255341 101.80846755 -194.9255341 100.48846755 -194.9255341 99.12846755 C-194.2655341 99.12846755 -193.6055341 99.12846755 -192.9255341 99.12846755 C-192.6161591 98.34471755 -192.3067841 97.56096755 -191.9880341 96.75346755 C-190.9255341 94.12846755 -190.9255341 94.12846755 -189.9255341 92.12846755 C-189.2655341 92.12846755 -188.6055341 92.12846755 -187.9255341 92.12846755 C-187.9255341 91.46846755 -187.9255341 90.80846755 -187.9255341 90.12846755 C-187.2655341 90.12846755 -186.6055341 90.12846755 -185.9255341 90.12846755 C-185.2655341 88.14846755 -184.6055341 86.16846755 -183.9255341 84.12846755 C-183.2655341 84.12846755 -182.6055341 84.12846755 -181.9255341 84.12846755 C-181.6986591 83.57159255 -181.4717841 83.01471755 -181.2380341 82.44096755 C-179.55003374 79.46687168 -177.45876894 77.4083789 -174.9255341 75.12846755 C-174.2655341 75.12846755 -173.6055341 75.12846755 -172.9255341 75.12846755 C-172.9255341 74.46846755 -172.9255341 73.80846755 -172.9255341 73.12846755 C-172.2655341 73.12846755 -171.6055341 73.12846755 -170.9255341 73.12846755 C-170.9255341 72.13846755 -170.9255341 71.14846755 -170.9255341 70.12846755 C-170.2655341 70.12846755 -169.6055341 70.12846755 -168.9255341 70.12846755 C-168.9255341 69.46846755 -168.9255341 68.80846755 -168.9255341 68.12846755 C-168.2655341 68.12846755 -167.6055341 68.12846755 -166.9255341 68.12846755 C-166.9255341 67.46846755 -166.9255341 66.80846755 -166.9255341 66.12846755 C-166.2655341 66.12846755 -165.6055341 66.12846755 -164.9255341 66.12846755 C-164.9255341 65.46846755 -164.9255341 64.80846755 -164.9255341 64.12846755 C-164.2655341 64.12846755 -163.6055341 64.12846755 -162.9255341 64.12846755 C-162.9255341 63.46846755 -162.9255341 62.80846755 -162.9255341 62.12846755 C-161.9355341 62.12846755 -160.9455341 62.12846755 -159.9255341 62.12846755 C-159.9255341 61.46846755 -159.9255341 60.80846755 -159.9255341 60.12846755 C-159.2655341 60.12846755 -158.6055341 60.12846755 -157.9255341 60.12846755 C-157.69737004 59.39241287 -157.46920598 58.65635818 -157.23412785 57.8979988 C-155.6581339 54.56253698 -153.88450409 53.07444856 -150.9880341 50.81596755 C-150.11276066 50.11858474 -149.23748723 49.42120193 -148.33569035 48.7026863 C-145.9255341 47.12846755 -145.9255341 47.12846755 -142.9255341 47.12846755 C-142.5542841 46.16940505 -142.5542841 46.16940505 -142.1755341 45.19096755 C-140.9255341 43.12846755 -140.9255341 43.12846755 -138.8005341 42.37846755 C-138.1817841 42.29596755 -137.5630341 42.21346755 -136.9255341 42.12846755 C-136.9255341 41.46846755 -136.9255341 40.80846755 -136.9255341 40.12846755 C-135.9355341 40.12846755 -134.9455341 40.12846755 -133.9255341 40.12846755 C-133.9255341 39.46846755 -133.9255341 38.80846755 -133.9255341 38.12846755 C-131.9455341 37.46846755 -129.9655341 36.80846755 -127.9255341 36.12846755 C-127.9255341 35.46846755 -127.9255341 34.80846755 -127.9255341 34.12846755 C-126.6055341 34.12846755 -125.2855341 34.12846755 -123.9255341 34.12846755 C-123.5955341 33.13846755 -123.2655341 32.14846755 -122.9255341 31.12846755 C-122.2655341 31.12846755 -121.6055341 31.12846755 -120.9255341 31.12846755 C-120.9255341 30.46846755 -120.9255341 29.80846755 -120.9255341 29.12846755 C-119.6055341 29.12846755 -118.2855341 29.12846755 -116.9255341 29.12846755 C-116.9255341 28.46846755 -116.9255341 27.80846755 -116.9255341 27.12846755 C-115.51327484 26.4525144 -114.09550505 25.78806696 -112.6755341 25.12846755 C-111.88662785 24.75721755 -111.0977216 24.38596755 -110.2849091 24.00346755 C-107.9255341 23.12846755 -107.9255341 23.12846755 -103.9255341 23.12846755 C-103.9255341 22.46846755 -103.9255341 21.80846755 -103.9255341 21.12846755 C-102.2755341 21.12846755 -100.6255341 21.12846755 -98.9255341 21.12846755 C-98.9255341 20.46846755 -98.9255341 19.80846755 -98.9255341 19.12846755 C-81.46466626 10.06367659 -81.46466626 10.06367659 -71.9255341 9.12846755 C-70.25619127 8.80880616 -68.5882124 8.48115689 -66.9255341 8.12846755 C-66.9255341 7.46846755 -66.9255341 6.80846755 -66.9255341 6.12846755 C-66.05670598 6.01889724 -65.18787785 5.90932693 -64.2927216 5.7964363 C-63.14029973 5.63788162 -61.98787785 5.47932693 -60.8005341 5.31596755 C-59.66358098 5.16514724 -58.52662785 5.01432693 -57.3552216 4.8589363 C-53.934035 4.30730143 -53.934035 4.30730143 -51.24207202 2.62528598 C-47.26205075 0.82902454 -43.72219487 0.56851002 -39.43123994 0.44890403 C-38.56810977 0.4157946 -37.7049796 0.38268518 -36.81569397 0.34857243 C-24.54956475 -0.06500245 -12.27144532 -0.01209912 0 0 Z " fill="#A331EF" transform="translate(232.9255341021344,-0.12846755422651768)"/>
<path d="M0 0 C45.21 0 90.42 0 137 0 C137.33 75.24 137.66 150.48 138 228 C143.34452355 222.0616405 148.48469644 216.22817984 153.4921875 210.04296875 C156.93975863 205.85970097 160.49949013 201.7786149 164.05932617 197.69091797 C168.0464122 193.10956654 171.98785505 188.49289557 175.90136719 183.84863281 C179.28481948 179.83615816 182.70100184 175.85289612 186.125 171.875 C189.61823856 167.81379124 193.06448707 163.72481029 196.4375 159.5625 C201.59186792 153.21723119 206.97362765 147.07490552 212.34033203 140.90966797 C218.4607846 133.86727609 224.56030337 126.80997199 230.4375 119.5625 C234.53979949 114.51066283 238.78701978 109.5969402 243.06005859 104.68994141 C247.04703759 100.10903362 250.98811681 95.49258493 254.90136719 90.84863281 C258.28481864 86.83615915 261.70090777 82.85281439 265.125 78.875 C268.706311 74.71319863 272.23158293 70.5173063 275.6875 66.25 C279.24151166 61.86992077 282.96536131 57.68571712 286.76171875 53.515625 C289.80879057 50.09099279 292.67745642 46.53388192 295.5625 42.97265625 C298.26891072 39.67204959 301.03041305 36.42430809 303.8125 33.1875 C304.31668457 32.600896 304.82086914 32.01429199 305.34033203 31.40991211 C307.41257256 29.00148188 309.48709444 26.59502178 311.56152344 24.18847656 C317.58297984 17.1993536 323.54745663 10.18016615 329.35546875 3.01171875 C331 1 331 1 332 0 C334.07560806 -0.09683581 336.15457204 -0.12186902 338.23243713 -0.12025452 C338.89074349 -0.12110894 339.54904984 -0.12196337 340.22730488 -0.12284368 C342.44917106 -0.1245003 344.67096295 -0.11897418 346.89282227 -0.11352539 C348.47915648 -0.11324353 350.06549082 -0.11340123 351.65182495 -0.1139679 C355.97188722 -0.11425592 360.29192197 -0.10835837 364.61197782 -0.10139394 C369.12168315 -0.09516125 373.63138905 -0.09455667 378.14109802 -0.09336853 C386.68694374 -0.09025496 395.23277674 -0.08204124 403.77861685 -0.07201904 C413.50517633 -0.06085869 423.23173642 -0.05534765 432.95830071 -0.05032361 C452.97220759 -0.03985864 472.98610299 -0.02225871 493 0 C492.06633644 1.2578518 491.13083076 2.51433634 490.19458008 3.77026367 C489.67382401 4.47011887 489.15306793 5.16997406 488.61653137 5.89103699 C486.11388604 9.15604411 483.4092493 12.22998261 480.6875 15.3125 C476.12426084 20.52698439 471.66983555 25.8058728 467.30859375 31.19140625 C464.58655909 34.5029848 461.79860269 37.75313059 459 41 C455.44542508 45.124643 451.93207702 49.27207904 448.5 53.5 C444.5662143 58.34596789 440.51552241 63.08098528 436.44140625 67.80859375 C433.41041716 71.33317903 430.43007419 74.89048832 427.5 78.5 C423.5662143 83.34596789 419.51552241 88.08098528 415.44140625 92.80859375 C412.41041716 96.33317903 409.43007419 99.89048832 406.5 103.5 C402.5662143 108.34596789 398.51552241 113.08098528 394.44140625 117.80859375 C391.41041716 121.33317903 388.43007419 124.89048832 385.5 128.5 C381.5662143 133.34596789 377.51552241 138.08098528 373.44140625 142.80859375 C370.41041716 146.33317903 367.43007419 149.89048832 364.5 153.5 C360.11287098 158.90076172 355.58776588 164.174677 351.05078125 169.44921875 C344.80572679 176.71031003 338.6036885 184.00553429 332.5625 191.4375 C328.60491812 196.30129025 324.53457554 201.05881231 320.44165039 205.80834961 C317.41054711 209.33298919 314.43014684 212.89039882 311.5 216.5 C307.5662143 221.34596789 303.51552241 226.08098528 299.44140625 230.80859375 C296.41041716 234.33317903 293.43007419 237.89048832 290.5 241.5 C286.5662143 246.34596789 282.51552241 251.08098528 278.44140625 255.80859375 C274.67860771 260.18416356 271.01584827 264.63240793 267.37890625 269.11328125 C262.67693778 274.81895399 257.82955215 280.40229574 253 286 C254.4841373 289.48654476 256.46214052 291.64191072 259.1875 294.25 C261.96417617 296.96516752 264.66223261 299.67456004 267.1875 302.625 C270.60197899 306.60195697 274.16662949 310.42595178 277.75 314.25 C282.96417255 319.81582125 288.14301516 325.41010163 293.2890625 331.0390625 C296.18206485 334.2025574 299.09043671 337.35174157 302 340.5 C305.86215094 344.68021774 309.71767611 348.86633757 313.5625 353.0625 C314.01455811 353.55580811 314.46661621 354.04911621 314.93237305 354.55737305 C317.17020088 357.00020497 319.40621067 359.44466848 321.640625 361.890625 C327.37277758 368.15911934 333.14464654 374.38766041 338.96606445 380.57348633 C341.84334673 383.64205607 344.66545956 386.74403704 347.421875 389.921875 C351.16503084 394.22681632 355.06963022 398.36633523 359 402.5 C363.51231547 407.2457111 367.9321606 412.03912396 372.22265625 416.98632812 C375.39083404 420.57576911 378.70140456 424.03078756 382 427.5 C386.51231547 432.2457111 390.9321606 437.03912396 395.22265625 441.98632812 C398.39083404 445.57576911 401.70140456 449.03078756 405 452.5 C409.52790589 457.26210792 413.96572865 462.07110265 418.27148438 467.03515625 C421.18537477 470.34744296 424.21959944 473.54461568 427.25 476.75 C433.55708081 483.4495214 439.79812306 490.20304042 446 497 C447.81190208 498.97971935 449.62421515 500.95904849 451.4375 502.9375 C451.88971924 503.43096924 452.34193848 503.92443848 452.80786133 504.43286133 C458.18999627 510.30263617 463.59531382 516.15099793 469 522 C477.13871964 530.80779871 485.25653374 539.63420953 493.35449219 548.47949219 C494.26104077 549.46958161 495.16769822 550.45957136 496.07446289 551.44946289 C496.9775626 552.43538313 497.88039803 553.42154552 498.78295898 554.40795898 C501.28568207 557.14044614 503.79913953 559.86236684 506.32421875 562.57421875 C506.874729 563.16662354 507.42523926 563.75902832 507.99243164 564.36938477 C509.06129732 565.51881098 510.13202935 566.66650515 511.20483398 567.81225586 C514.88845431 571.77690862 514.88845431 571.77690862 516 574 C493.56466014 574.1869143 471.12944874 574.32797125 448.69348812 574.41449738 C438.27594405 574.45574168 427.85888387 574.5119678 417.44165039 574.60351562 C408.36153721 574.68327462 399.28177446 574.73487073 390.20132071 574.75270796 C385.39344084 574.76313437 380.58656346 574.78762087 375.77900505 574.84584045 C371.25203189 574.90021705 366.72647222 574.91687818 362.19920349 574.90486145 C360.53951899 574.9070591 358.87978636 574.92293111 357.2203846 574.9536438 C344.68167118 575.17429502 344.68167118 575.17429502 340.51938057 572.26780701 C338.7448679 570.26214877 337.38173176 568.28638264 336 566 C335.07834239 564.93502925 334.13125567 563.89135594 333.15625 562.875 C328.66387128 558.01266068 324.21088864 553.12794843 319.875 548.125 C317.45449925 545.38176582 314.97799358 542.69115432 312.5 540 C308.89987244 536.09018405 305.35582395 532.14133532 301.875 528.125 C299.45449925 525.38176582 296.97799358 522.69115432 294.5 520 C290.89987244 516.09018405 287.35582395 512.14133532 283.875 508.125 C281.45449925 505.38176582 278.97799358 502.69115432 276.5 500 C272.89987244 496.09018405 269.35582395 492.14133532 265.875 488.125 C263.45449925 485.38176582 260.97799358 482.69115432 258.5 480 C254.89987244 476.09018405 251.35582395 472.14133532 247.875 468.125 C245.45449925 465.38176582 242.97799358 462.69115432 240.5 460 C236.89987244 456.09018405 233.35582395 452.14133532 229.875 448.125 C227.45449925 445.38176582 224.97799358 442.69115432 222.5 440 C218.89987244 436.09018405 215.35582395 432.14133532 211.875 428.125 C209.45449892 425.38176544 206.9779759 422.69117094 204.5 420 C200.87909866 416.06715159 197.31041075 412.09785988 193.80859375 408.05859375 C191.5698875 405.5104335 189.28589788 403.00589407 187 400.5 C184.15475772 397.38092989 181.3280042 394.25244609 178.5625 391.0625 C175.13231424 387.11332633 171.58996482 383.26977695 168.04711914 379.42211914 C165.49459547 376.6452363 162.97024254 373.85027985 160.5 371 C156.73645838 366.65884048 152.8377513 362.44418061 148.94140625 358.22265625 C145.255085 354.18385806 141.63285271 350.0869593 138 346 C137.505 458.86 137.505 458.86 137 574 C91.79 574 46.58 574 0 574 C0 384.58 0 195.16 0 0 Z " fill="#FEFEFE" transform="translate(345,286)"/>
<path d="M0 0 C0.33 0 0.66 0 1 0 C1.02690844 2.62506802 1.04679404 5.24986173 1.0625 7.875 C1.07087891 8.62136719 1.07925781 9.36773437 1.08789062 10.13671875 C1.11328125 15.7734375 1.11328125 15.7734375 0 18 C-0.15372348 19.826725 -0.24721381 21.65865248 -0.31194198 23.49069107 C-0.35326213 24.63822621 -0.39458227 25.78576134 -0.43715454 26.96807028 C-0.4758995 28.21981251 -0.51464447 29.47155474 -0.55456352 30.76122856 C-0.59669639 32.06440019 -0.63882925 33.36757182 -0.68223887 34.7102335 C-1.09302206 48.06589776 -1.14249969 61.41914027 -1.12846755 74.7805211 C-1.12587309 78.34693653 -1.12921297 81.91334808 -1.13171089 85.47976291 C-1.13528275 91.69714944 -1.13523796 97.91452724 -1.13266373 104.13191414 C-1.12884623 113.3776105 -1.13083287 122.62329966 -1.13387203 131.86899599 C-1.13911111 148.38887594 -1.13869224 164.908752 -1.13579312 181.42863231 C-1.13326969 195.87991092 -1.13262453 210.33118811 -1.13381577 224.78246689 C-1.13389215 225.74399977 -1.13396854 226.70553266 -1.13404724 227.69620291 C-1.13435861 231.60004346 -1.13467701 235.50388402 -1.135007 239.40772457 C-1.1380597 275.95830767 -1.13530212 312.5088883 -1.1299101 349.05947102 C-1.12516139 381.49602887 -1.12559304 413.9325828 -1.13037109 446.36914062 C-1.13573016 482.87135722 -1.13784691 519.37357164 -1.13475883 555.87578857 C-1.13443814 559.7690893 -1.1341253 563.66239003 -1.13381577 567.55569077 C-1.13373669 568.5142171 -1.13365761 569.47274344 -1.13357614 570.46031603 C-1.13244087 584.90553238 -1.13376473 599.35074715 -1.13629532 613.79596329 C-1.13915844 630.22054421 -1.13843132 646.64512066 -1.13301457 663.06970103 C-1.13008624 672.25071679 -1.12987513 681.43172285 -1.13366075 690.61273835 C-1.13591353 696.75576952 -1.13448891 702.89879297 -1.13015598 709.04182301 C-1.12779221 712.53435234 -1.12693222 716.02686251 -1.13056196 719.51939119 C-1.14746688 737.31434437 -1.14746688 737.31434437 -0.55456352 755.09690666 C-0.51581856 755.86903128 -0.47707359 756.6411559 -0.43715454 757.43667824 C-0.25606201 760.49965781 0.02457075 763.07371226 1 766 C1.06802967 767.72795352 1.08495645 769.45835365 1.0625 771.1875 C1.05347656 772.08855469 1.04445313 772.98960937 1.03515625 773.91796875 C1.02355469 774.60503906 1.01195312 775.29210937 1 776 C0.34 776 -0.32 776 -1 776 C-1 772.04 -1 768.08 -1 764 C-1.66 764 -2.32 764 -3 764 C-3.79696779 760.49179993 -4.12508351 757.2583297 -4.12534916 753.66369796 C-4.12785268 752.59833904 -4.1303562 751.53298012 -4.13293558 750.4353376 C-4.13059442 749.26864271 -4.12825325 748.10194781 -4.12584114 746.89989853 C-4.12729458 745.65249427 -4.12874802 744.40509001 -4.13024551 743.11988562 C-4.13415073 739.64467626 -4.13180372 736.16949456 -4.12846755 732.69428563 C-4.12593714 728.91828301 -4.12918828 725.14228472 -4.13171089 721.3662827 C-4.13532854 714.74399196 -4.13520935 708.12170937 -4.13266373 701.49941826 C-4.12888854 691.65178664 -4.13081121 681.80416192 -4.13387203 671.95653035 C-4.1391446 654.36975276 -4.13867861 636.7829788 -4.13579312 619.19620087 C-4.13327995 603.80344067 -4.13261975 588.41068181 -4.13381577 573.01792145 C-4.13389215 571.99783369 -4.13396854 570.97774594 -4.13404724 569.92674643 C-4.13435856 565.78608399 -4.13467696 561.64542156 -4.135007 557.50475912 C-4.13806798 518.63856742 -4.13528956 479.77237804 -4.1299101 440.9061867 C-4.12516571 406.36567922 -4.1255877 371.82517542 -4.13037109 337.28466797 C-4.13572472 298.49668898 -4.13784949 259.70871204 -4.13475883 220.92073274 C-4.1344381 216.78626903 -4.13412527 212.65180532 -4.13381577 208.51734161 C-4.13373669 207.49929902 -4.13365761 206.48125642 -4.13357614 205.43236405 C-4.13243811 190.05095526 -4.13377001 174.66954794 -4.13629532 159.28813934 C-4.13915253 141.79769475 -4.13844417 124.30725435 -4.13301457 106.81681028 C-4.13007526 97.02504586 -4.12989098 87.23329053 -4.13366075 77.44152634 C-4.13590051 70.90330038 -4.13451229 64.36508172 -4.13015598 57.82685684 C-4.12777406 54.09998524 -4.12697042 50.37313174 -4.13056196 46.64626071 C-4.13439106 42.63198072 -4.13049677 38.61774514 -4.12584114 34.60346603 C-4.12818231 33.4461358 -4.13052347 32.28880557 -4.13293558 31.09640473 C-4.1186958 24.9797821 -3.8040379 19.06503693 -3 13 C-2.34 13 -1.68 13 -1 13 C-1.01160156 12.14535156 -1.02320313 11.29070312 -1.03515625 10.41015625 C-1.04869141 8.75306641 -1.04869141 8.75306641 -1.0625 7.0625 C-1.07410156 5.96035156 -1.08570313 4.85820312 -1.09765625 3.72265625 C-1 1 -1 1 0 0 Z " fill="#7235BA" transform="translate(4,183)"/>
<path d="M0 0 C3.76122152 0.00348068 7.52244041 0.0010547 11.28366255 -0.00057749 C17.85647429 -0.00263761 24.42927692 -0.00103094 31.00208759 0.00306072 C40.77542089 0.00912772 50.54874852 0.00939357 60.32208337 0.00851873 C76.76712171 0.00720862 93.21215601 0.01053178 109.65719318 0.01653614 C125.92944578 0.02246212 142.20169671 0.02630389 158.47395038 0.02738895 C159.48738143 0.02745769 160.50081248 0.02752643 161.54495356 0.02759725 C166.69208727 0.02793561 171.83922097 0.02823698 176.98635468 0.02852413 C213.40160633 0.03062207 249.81685579 0.03735253 286.23210621 0.04682674 C321.59929359 0.05601762 356.96648037 0.06309807 392.33366871 0.06733455 C393.42468711 0.06746608 394.51570551 0.0675976 395.63978508 0.06773312 C406.59668143 0.06905169 417.55357777 0.07032749 428.51047413 0.07157198 C450.82904146 0.07410789 473.14760875 0.07692914 495.46617603 0.07992305 C497.00528417 0.08012899 497.00528417 0.08012899 498.5754854 0.08033908 C567.04338335 0.08953289 635.51128009 0.10537728 703.97917652 0.12226619 C703.97917652 0.78226619 703.97917652 1.44226619 703.97917652 2.12226619 C703.36047467 2.12211021 702.74177282 2.12195423 702.10432243 2.12179352 C634.71145213 2.10483877 567.31858158 2.08913451 499.92570972 2.07992305 C498.91824127 2.079785 497.91077282 2.07964694 496.87277503 2.0795047 C474.97520226 2.07651145 453.07762946 2.07374132 431.18005663 2.07120086 C420.4407333 2.06995358 409.70140999 2.06865702 398.96208667 2.06733455 C397.35909068 2.06713841 397.35909068 2.06713841 395.72371094 2.06693831 C361.11566742 2.06268068 326.50762554 2.05517215 291.89958301 2.04596897 C256.32083955 2.0365249 220.74209699 2.03037809 185.1633523 2.0283512 C180.13247795 2.02806307 175.1016036 2.02773743 170.07072925 2.02738895 C169.08062851 2.02732153 168.09052777 2.0272541 167.07042397 2.02718464 C151.16385796 2.02600516 135.25729477 2.02137317 119.3507299 2.01543416 C103.34030912 2.00953063 87.3298911 2.00730228 71.31946927 2.00876482 C61.81971565 2.00952257 52.31997221 2.00752305 42.82022044 2.00146865 C36.45731906 1.99769233 30.09442426 1.99762092 23.7315224 2.00043438 C20.11700197 2.0019303 16.50250066 2.00193726 12.88798236 1.99738301 C-0.22092299 1.98197725 -13.3204083 2.03236914 -26.42199231 2.50868835 C-27.86950948 2.55506089 -27.86950948 2.55506089 -29.34626943 2.60237025 C-35.95459586 2.88333137 -41.63111161 4.02528327 -47.91535473 6.13789119 C-53.16925155 7.80327735 -58.56709976 8.43238104 -64.02082348 9.12226619 C-65.30279614 9.29048885 -65.30279614 9.29048885 -66.61066723 9.46210994 C-68.41265903 9.69329694 -70.21650583 9.90999353 -72.02082348 10.12226619 C-71.69082348 9.46226619 -71.36082348 8.80226619 -71.02082348 8.12226619 C-69.70082348 8.12226619 -68.38082348 8.12226619 -67.02082348 8.12226619 C-67.02082348 7.46226619 -67.02082348 6.80226619 -67.02082348 6.12226619 C-66.15199536 6.01269588 -65.28316723 5.90312557 -64.38801098 5.79023494 C-63.23558911 5.63168026 -62.08316723 5.47312557 -60.89582348 5.30976619 C-59.75887036 5.15894588 -58.62191723 5.00812557 -57.45051098 4.85273494 C-54.0292895 4.30105178 -54.0292895 4.30105178 -51.3369577 2.6191109 C-47.35893233 0.82350016 -43.82188418 0.56202716 -39.53298855 0.4422821 C-38.23854275 0.39260188 -38.23854275 0.39260188 -36.91794654 0.34191801 C-24.61776578 -0.07252646 -12.30547372 -0.01510312 0 0 Z " fill="#8F44E7" transform="translate(233.02082348242402,-0.122266192920506)"/>
<path d="M0 0 C1.82558694 0.00028311 3.65117399 0.00012172 5.47676086 -0.0004425 C10.36179467 -0.00072564 15.24680317 0.00509168 20.13183117 0.01213145 C25.26336216 0.01844668 30.39489394 0.01897518 35.52642822 0.02015686 C45.21203472 0.02324636 54.89762973 0.03142715 64.58323121 0.04150635 C75.62338666 0.05274207 86.6635427 0.05819661 97.70370245 0.06320179 C120.3848314 0.07361215 143.06595021 0.09116476 165.74707031 0.11352539 C165.74707031 0.44352539 165.74707031 0.77352539 165.74707031 1.11352539 C138.69038341 1.78287468 111.64467958 2.20867304 84.57910156 2.17602539 C82.67772745 2.1738652 82.67772745 2.1738652 80.73794174 2.17166138 C71.6784648 2.15954536 62.61902247 2.13750115 53.55957031 2.11352539 C44.38902192 2.08957772 35.21849097 2.06939503 26.04791832 2.05758667 C22.46574184 2.05126647 18.88362564 2.03879153 15.3014679 2.02587891 C4.38285936 2.00015263 -6.52165037 2.09994853 -17.43383789 2.49633789 C-18.41189738 2.52747177 -19.38995687 2.55860565 -20.39765453 2.59068298 C-27.07752507 2.87109352 -32.79611415 3.99398387 -39.14746094 6.12915039 C-44.40135775 7.79453655 -49.79920597 8.42364023 -55.25292969 9.11352539 C-56.53490234 9.28174805 -56.53490234 9.28174805 -57.84277344 9.45336914 C-59.64476524 9.68455614 -61.44861203 9.90125273 -63.25292969 10.11352539 C-62.92292969 9.45352539 -62.59292969 8.79352539 -62.25292969 8.11352539 C-60.93292969 8.11352539 -59.61292969 8.11352539 -58.25292969 8.11352539 C-58.25292969 7.45352539 -58.25292969 6.79352539 -58.25292969 6.11352539 C-57.38410156 6.00395508 -56.51527344 5.89438477 -55.62011719 5.78149414 C-54.46769531 5.62293945 -53.31527344 5.46438477 -52.12792969 5.30102539 C-50.99097656 5.15020508 -49.85402344 4.99938477 -48.68261719 4.84399414 C-45.26549231 4.29709748 -45.26549231 4.29709748 -42.61180496 2.61039639 C-38.33502762 0.70446555 -34.71232159 0.55616683 -30.08123779 0.43312073 C-29.20174052 0.39998986 -28.32224325 0.36685899 -27.41609454 0.33272415 C-18.27875635 0.01707426 -9.14170403 -0.02032817 0 0 Z " fill="#834DE8" transform="translate(224.2529296875,-0.113525390625)"/>
<path d="M0 0 C1.58707084 0.00197568 3.17414808 0.00086391 4.76121521 -0.00309753 C9.0608726 -0.00510353 13.35915913 0.03600864 17.65849829 0.08492017 C22.15475836 0.12872162 26.65105095 0.13279459 31.14749146 0.14109802 C39.65805124 0.16284261 48.16798052 0.2202689 56.67826283 0.29054445 C66.36857576 0.36882489 76.05891904 0.40728367 85.74946952 0.4424125 C105.67984832 0.51555273 125.60965981 0.63865311 145.53955078 0.79467773 C144.21955078 2.77467773 142.89955078 4.75467773 141.53955078 6.79467773 C141.20955078 5.80467773 140.87955078 4.81467773 140.53955078 3.79467773 C120.41648055 3.6779008 100.29347902 3.58971722 80.17014027 3.53561687 C70.82660918 3.50982997 61.48328857 3.47467022 52.13989258 3.41748047 C43.9966274 3.36766031 35.85351465 3.33539025 27.71010131 3.32423526 C23.39773199 3.3177141 19.08579873 3.30237781 14.77356911 3.26602745 C10.71465462 3.23208964 6.65635582 3.22162011 2.59731293 3.22913933 C1.10776359 3.22776377 -0.38180633 3.21781744 -1.87123299 3.19865036 C-3.90559616 3.17375477 -5.94028968 3.18273927 -7.97477722 3.19340515 C-9.11319156 3.18879619 -10.25160589 3.18418722 -11.42451763 3.17943859 C-15.37398907 3.97980887 -16.89492485 5.77870214 -19.46044922 8.79467773 C-20.12044922 8.46467773 -20.78044922 8.13467773 -21.46044922 7.79467773 C-16.84839438 -1.22176071 -8.90466037 -0.15475934 0 0 Z " fill="#F9DBFE" transform="translate(692.46044921875,285.205322265625)"/>
<path d="M0 0 C0.33 0 0.66 0 1 0 C1.02690844 2.62506802 1.04679404 5.24986173 1.0625 7.875 C1.07087891 8.62136719 1.07925781 9.36773437 1.08789062 10.13671875 C1.11328125 15.7734375 1.11328125 15.7734375 0 18 C-1.36080944 32.94139642 -1.0628832 48.178871 -1.02043056 63.17694855 C-1.00853071 67.55594688 -1.00540535 71.93495295 -1.00195312 76.31396484 C-1.00114982 77.20871017 -1.00034652 78.10345551 -0.99951887 79.02531433 C-0.99421356 88.00148356 -1.03557764 96.97715431 -1.09179688 105.953125 C-1.09663621 106.73134047 -1.10147554 107.50955593 -1.10646152 108.31135368 C-1.13679464 113.12712118 -1.16908726 117.94287408 -1.20192909 122.75862503 C-1.23091572 127.05188637 -1.2583664 131.34515758 -1.28601074 135.63842773 C-1.33809979 143.69423521 -1.39148192 151.75003352 -1.4453826 159.80582905 C-1.50688997 169.0085095 -1.56687362 178.21119971 -1.62675762 187.41389084 C-1.74952993 206.2759382 -1.87412361 225.13797311 -2 244 C-2.33 244 -2.66 244 -3 244 C-3.04695338 216.74637908 -3.08210223 189.49276432 -3.10362434 162.23911095 C-3.11388801 149.58159397 -3.12785308 136.92410229 -3.15087891 124.26660156 C-3.17096457 113.21995895 -3.18375199 102.17333467 -3.18817699 91.12667429 C-3.19075898 85.29063749 -3.19672216 79.45465309 -3.21146011 73.61863327 C-3.34734954 17.61825893 -3.34734954 17.61825893 -1 1 C-0.67 0.67 -0.34 0.34 0 0 Z " fill="#864DE7" transform="translate(4,183)"/>
<path d="M0 0 C0.33 0 0.66 0 1 0 C1.33 73.59 1.66 147.18 2 223 C2.99 223 3.98 223 5 223 C3.63016497 226.16115776 3.0109362 226.9927092 0 229 C0 153.43 0 77.86 0 0 Z " fill="#AA69E5" transform="translate(482,286)"/>
<path d="M0 0 C0.99 0.33 1.98 0.66 3 1 C2.34 1 1.68 1 1 1 C0.79689209 1.73516846 0.59378418 2.47033691 0.38452148 3.2277832 C-1.39539954 6.79170548 -3.89535668 8.28152842 -7.15234375 10.35546875 C-15.97852868 16.32104801 -23.15506748 23.70981997 -30.5625 31.3125 C-31.90073251 32.67086851 -33.23992146 34.02829543 -34.58007812 35.38476562 C-37.02619466 37.8631641 -39.46679379 40.34670549 -41.90063477 42.8371582 C-42.42593781 43.37305573 -42.95124084 43.90895325 -43.49246216 44.46109009 C-44.92550243 45.92395213 -46.35529765 47.38999099 -47.78491211 48.85620117 C-50 51 -50 51 -52 52 C-51.01 49.03 -51.01 49.03 -50 46 C-49.34 46 -48.68 46 -48 46 C-47.773125 45.443125 -47.54625 44.88625 -47.3125 44.3125 C-45.62449964 41.33840412 -43.53323483 39.27991135 -41 37 C-40.34 37 -39.68 37 -39 37 C-39 36.34 -39 35.68 -39 35 C-38.34 35 -37.68 35 -37 35 C-37 34.01 -37 33.02 -37 32 C-36.34 32 -35.68 32 -35 32 C-35 31.34 -35 30.68 -35 30 C-34.34 30 -33.68 30 -33 30 C-33 29.34 -33 28.68 -33 28 C-32.34 28 -31.68 28 -31 28 C-31 27.34 -31 26.68 -31 26 C-30.34 26 -29.68 26 -29 26 C-29 25.34 -29 24.68 -29 24 C-28.01 24 -27.02 24 -26 24 C-26 23.34 -26 22.68 -26 22 C-25.34 22 -24.68 22 -24 22 C-23.77183594 21.26394531 -23.54367188 20.52789062 -23.30859375 19.76953125 C-21.7325998 16.43406943 -19.95896999 14.94598101 -17.0625 12.6875 C-16.18722656 11.99011719 -15.31195313 11.29273438 -14.41015625 10.57421875 C-12 9 -12 9 -9 9 C-8.7525 8.360625 -8.505 7.72125 -8.25 7.0625 C-7 5 -7 5 -4.875 4.25 C-4.25625 4.1675 -3.6375 4.085 -3 4 C-3 3.34 -3 2.68 -3 2 C-2.01 2 -1.02 2 0 2 C0 1.34 0 0.68 0 0 Z " fill="#6C43C7" transform="translate(99,38)"/>
<path d="M0 0 C0.33 0 0.66 0 1 0 C1.02690844 2.62506802 1.04679404 5.24986173 1.0625 7.875 C1.07087891 8.62136719 1.07925781 9.36773437 1.08789062 10.13671875 C1.11328125 15.7734375 1.11328125 15.7734375 0 18 C-0.36699807 22.02956031 -0.43080362 26.08173266 -0.5625 30.125 C-0.60640869 31.37643799 -0.65031738 32.62787598 -0.69555664 33.91723633 C-0.95132481 41.86433167 -1.02473328 49.80289651 -0.9921875 57.75390625 C-0.98725533 59.11421967 -0.98725533 59.11421967 -0.98222351 60.50201416 C-0.96281683 65.02460155 -0.92835945 69.54653232 -0.87524414 74.06884766 C-0.86324408 75.73730326 -0.85143482 77.40576025 -0.83984375 79.07421875 C-0.82633881 79.8468959 -0.81283386 80.61957306 -0.79891968 81.41566467 C-0.79015062 83.2782955 -0.88582437 85.14085116 -1 87 C-1.99 87.99 -1.99 87.99 -3 89 C-3.48267959 17.2689973 -3.48267959 17.2689973 -1 1 C-0.67 0.67 -0.34 0.34 0 0 Z " fill="#844FEA" transform="translate(4,183)"/>
<path d="M0 0 C0.66 0 1.32 0 2 0 C1.64305211 5.31729275 0.84591513 9.84318699 -1.1796875 14.76953125 C-2.1745527 17.4746171 -2.83172508 20.19676258 -3.5 23 C-4.67000172 27.86377676 -6.15743465 32.35353085 -8 37 C-8.67735217 38.99640639 -9.34838935 40.99504414 -10 43 C-10.33 43 -10.66 43 -11 43 C-10.85970581 40.8537974 -10.71261836 38.70803782 -10.5625 36.5625 C-10.48128906 35.36753906 -10.40007813 34.17257813 -10.31640625 32.94140625 C-10 30 -10 30 -9 29 C-8.87625 27.80375 -8.7525 26.6075 -8.625 25.375 C-8.16024478 21.184707 -6.74118445 17.84511567 -5 14 C-4.30859478 11.22111387 -4.30859478 11.22111387 -4 9 C-3.34 9 -2.68 9 -2 9 C-2 7.35 -2 5.7 -2 4 C-1.34 4 -0.68 4 0 4 C0 2.68 0 1.36 0 0 Z " fill="#4C2E8B" transform="translate(16,140)"/>
<path d="M0 0 C0 0.66 0 1.32 0 2 C-0.99 2 -1.98 2 -3 2 C-3 2.66 -3 3.32 -3 4 C-3.66 4 -4.32 4 -5 4 C-5.3403125 4.8971875 -5.3403125 4.8971875 -5.6875 5.8125 C-7.35609042 8.59348403 -9.1283832 9.5641916 -12 11 C-12.66 11 -13.32 11 -14 11 C-14 11.66 -14 12.32 -14 13 C-15.32 13 -16.64 13 -18 13 C-18 13.66 -18 14.32 -18 15 C-21 17 -21 17 -25 17 C-25 17.66 -25 18.32 -25 19 C-26.609375 20.21875 -26.609375 20.21875 -28.75 21.5 C-29.79414062 22.13421875 -29.79414062 22.13421875 -30.859375 22.78125 C-36.51282051 26 -36.51282051 26 -40 26 C-40 25.34 -40 24.68 -40 24 C-37.4453125 22.2734375 -37.4453125 22.2734375 -34.125 20.375 C-32.48917969 19.42753906 -32.48917969 19.42753906 -30.8203125 18.4609375 C-28 17 -28 17 -26 17 C-26 16.34 -26 15.68 -26 15 C-23.69 14.34 -21.38 13.68 -19 13 C-19 12.34 -19 11.68 -19 11 C-18.0925 10.566875 -17.185 10.13375 -16.25 9.6875 C-13.07225128 8.15019164 -13.07225128 8.15019164 -10.75 6.3125 C-9 5 -9 5 -7 5 C-7 4.34 -7 3.68 -7 3 C-4.4385343 0.70351351 -3.52032428 0 0 0 Z " fill="#D00CEC" transform="translate(1060,1092)"/>
<path d="M0 0 C-8.84001193 7.62876029 -25.68809447 7.69478013 -37 9 C-36.67 8.34 -36.34 7.68 -36 7 C-34.68 7 -33.36 7 -32 7 C-32 6.34 -32 5.68 -32 5 C-31.13117188 4.89042969 -30.26234375 4.78085938 -29.3671875 4.66796875 C-22.43196518 3.84889349 -22.43196518 3.84889349 -16 1.375 C-10.94016248 -0.9440922 -5.47980881 -0.21951756 0 0 Z " fill="#4A2E8A" transform="translate(198,1)"/>
<path d="M0 0 C7 6 7 6 8 9 C7.34 9 6.68 9 6 9 C4.35 7.35 2.7 5.7 1 4 C1 26.11 1 48.22 1 71 C0.67 71 0.34 71 0 71 C0 47.57 0 24.14 0 0 Z " fill="#9D36E4" transform="translate(483,632)"/>
<path d="M0 0 C0.99 0.33 1.98 0.66 3 1 C2.34 1 1.68 1 1 1 C0.81308594 1.71929687 0.62617187 2.43859375 0.43359375 3.1796875 C-1.55027948 7.08256617 -4.34664902 8.75046356 -7.9375 11.125 C-9.19833447 11.9792378 -10.45750732 12.83593429 -11.71484375 13.6953125 C-12.27292725 14.06672363 -12.83101074 14.43813477 -13.40600586 14.82080078 C-15.06270717 15.97717589 -15.06270717 15.97717589 -16.50610352 17.56982422 C-18.68466321 19.65545956 -21.14606265 20.17552921 -24 21 C-22.48410872 17.19742527 -20.2397955 15.26944136 -17.0625 12.75 C-16.18722656 12.04359375 -15.31195313 11.3371875 -14.41015625 10.609375 C-12 9 -12 9 -9 9 C-8.7525 8.360625 -8.505 7.72125 -8.25 7.0625 C-7 5 -7 5 -4.875 4.25 C-4.25625 4.1675 -3.6375 4.085 -3 4 C-3 3.34 -3 2.68 -3 2 C-2.01 2 -1.02 2 0 2 C0 1.34 0 0.68 0 0 Z " fill="#503398" transform="translate(99,38)"/>
<path d="M0 0 C-1.44058173 2.88116346 -3.64097173 3.29761727 -6.55078125 4.34765625 C-10.13998666 5.30363281 -13.71075164 5.44501075 -17.40625 5.68359375 C-20.24475537 5.90358665 -20.24475537 5.90358665 -23.5625 7.5625 C-28.12549694 9.47066236 -32.12407974 9.26488903 -37 9 C-28.57428788 4.67429958 -21.48529261 3.56666176 -12 4 C-12 3.34 -12 2.68 -12 2 C-7.8803623 0.70756464 -4.33168317 -0.26252625 0 0 Z " fill="#E008F3" transform="translate(982,1133)"/>
<path d="M0 0 C1.32 0.33 2.64 0.66 4 1 C3.34 1 2.68 1 2 1 C2 1.66 2 2.32 2 3 C1.21625 3.103125 0.4325 3.20625 -0.375 3.3125 C-3.33045181 3.77595022 -3.33045181 3.77595022 -5 7 C-6.32 7 -7.64 7 -9 7 C-9 7.66 -9 8.32 -9 9 C-11.97 9.66 -14.94 10.32 -18 11 C-18.33 12.32 -18.66 13.64 -19 15 C-20.8125 16.3125 -20.8125 16.3125 -23 17 C-25.25 16.625 -25.25 16.625 -27 16 C-26.01 15.67 -25.02 15.34 -24 15 C-24 14.34 -24 13.68 -24 13 C-22.68 13 -21.36 13 -20 13 C-19.67 12.01 -19.34 11.02 -19 10 C-18.34 10 -17.68 10 -17 10 C-17 9.34 -17 8.68 -17 8 C-15.68 8 -14.36 8 -13 8 C-13 7.34 -13 6.68 -13 6 C-11.58774074 5.32404685 -10.16997095 4.65959941 -8.75 4 C-7.96109375 3.62875 -7.1721875 3.2575 -6.359375 2.875 C-4 2 -4 2 0 2 C0 1.34 0 0.68 0 0 Z " fill="#3A236F" transform="translate(129,21)"/>
<path d="M0 0 C0.66 0 1.32 0 2 0 C1.85437243 6.84449556 -1.25375843 11.16606805 -6 16 C-6.66 16 -7.32 16 -8 16 C-8.268125 16.928125 -8.53625 17.85625 -8.8125 18.8125 C-9.91148371 21.76240366 -10.62418561 23.05615186 -13 25 C-12.42432075 21.02710243 -11.20062263 18.31981135 -9.0625 14.9375 C-7.22580443 12.00871517 -5.49174262 9.12040847 -4 6 C-3.34 6 -2.68 6 -2 6 C-2 5.34 -2 4.68 -2 4 C-1.34 4 -0.68 4 0 4 C0 2.68 0 1.36 0 0 Z " fill="#352268" transform="translate(38,99)"/>
<path d="M0 0 C0.99 0.33 1.98 0.66 3 1 C2.04882866 2.1725131 1.08882991 3.33787015 0.125 4.5 C-0.67550781 5.47453125 -0.67550781 5.47453125 -1.4921875 6.46875 C-1.98976563 6.9740625 -2.48734375 7.479375 -3 8 C-3.66 8 -4.32 8 -5 8 C-5 8.99 -5 9.98 -5 11 C-6.32 11.33 -7.64 11.66 -9 12 C-9 12.66 -9 13.32 -9 14 C-9.66 14 -10.32 14 -11 14 C-11 14.66 -11 15.32 -11 16 C-11.66 16 -12.32 16 -13 16 C-13 16.66 -13 17.32 -13 18 C-13.99 18 -14.98 18 -16 18 C-15.1875 16.0625 -15.1875 16.0625 -14 14 C-13.01 13.67 -12.02 13.34 -11 13 C-10.67 12.01 -10.34 11.02 -10 10 C-8.37660195 8.29115995 -6.70680947 6.62553283 -5 5 C-4.1646875 4.1028125 -4.1646875 4.1028125 -3.3125 3.1875 C-2 2 -2 2 0 2 C0 1.34 0 0.68 0 0 Z " fill="#D50BEF" transform="translate(1086,1065)"/>
<path d="M0 0 C0.33 1.32 0.66 2.64 1 4 C0.34 4 -0.32 4 -1 4 C-1 5.32 -1 6.64 -1 8 C-1.66 8 -2.32 8 -3 8 C-3 9.32 -3 10.64 -3 12 C-3.66 12 -4.32 12 -5 12 C-5.12375 12.7425 -5.2475 13.485 -5.375 14.25 C-5.95486701 16.80141485 -6.73708739 18.7267573 -8 21 C-8.66 21 -9.32 21 -10 21 C-10 21.66 -10 22.32 -10 23 C-10.66 23 -11.32 23 -12 23 C-11.38214157 18.9839202 -9.22212512 16.33318768 -7 13 C-6.505 11.845 -6.01 10.69 -5.5 9.5 C-3.9696691 5.9292279 -2.23207401 3.15569085 0 0 Z " fill="#CA0EEB" transform="translate(1119,1017)"/>
<path d="M0 0 C0.33 0 0.66 0 1 0 C1.72412467 4.63439786 -0.08969348 6.98769999 -2.5546875 10.6640625 C-5.16288618 14.87947551 -7.03749407 19.45700755 -9 24 C-9.99 24 -10.98 24 -12 24 C-11.67 22.68 -11.34 21.36 -11 20 C-10.34 20 -9.68 20 -9 20 C-9 18.68 -9 17.36 -9 16 C-8.34 16 -7.68 16 -7 16 C-7 14.68 -7 13.36 -7 12 C-6.34 12 -5.68 12 -5 12 C-4.9175 11.319375 -4.835 10.63875 -4.75 9.9375 C-3.77667472 6.1253093 -2.04192545 3.35929671 0 0 Z " fill="#794ED9" transform="translate(30,115)"/>
<path d="M0 0 C0.33 0 0.66 0 1 0 C1.02690844 2.62506802 1.04679404 5.24986173 1.0625 7.875 C1.07087891 8.62136719 1.07925781 9.36773437 1.08789062 10.13671875 C1.11328125 15.7734375 1.11328125 15.7734375 0 18 C-0.22950319 20.204364 -0.41075933 22.41392173 -0.5625 24.625 C-0.64628906 25.81351563 -0.73007812 27.00203125 -0.81640625 28.2265625 C-0.87699219 29.14179688 -0.93757812 30.05703125 -1 31 C-1.33 31 -1.66 31 -2 31 C-2.2194557 9.05442965 -2.2194557 9.05442965 -1 1 C-0.67 0.67 -0.34 0.34 0 0 Z " fill="#6440B5" transform="translate(4,183)"/>
<path d="M0 0 C0.99 0.33 1.98 0.66 3 1 C2.34 2.32 1.68 3.64 1 5 C0.34 5 -0.32 5 -1 5 C-1 5.66 -1 6.32 -1 7 C-1.66 7 -2.32 7 -3 7 C-3.33 8.32 -3.66 9.64 -4 11 C-4.66 11 -5.32 11 -6 11 C-6.2165625 11.928125 -6.2165625 11.928125 -6.4375 12.875 C-7 15 -7 15 -8 17 C-8.66 17 -9.32 17 -10 17 C-8.67210863 10.44809643 -4.23407578 5.01816389 0 0 Z " fill="#D60BF0" transform="translate(1102,1044)"/>
<path d="M0 0 C0.66 0 1.32 0 2 0 C0.07289294 11.52164009 0.07289294 11.52164009 -2 17 C-2.66 17 -3.32 17 -4 17 C-4 18.65 -4 20.3 -4 22 C-4.99 22 -5.98 22 -7 22 C-6.28823797 19.62745991 -5.57628328 17.25498038 -4.86328125 14.8828125 C-4.29434179 12.98291513 -3.72914549 11.08189222 -3.16796875 9.1796875 C-2.90628906 8.29539062 -2.64460938 7.41109375 -2.375 6.5 C-2.13523437 5.6853125 -1.89546875 4.870625 -1.6484375 4.03125 C-1 2 -1 2 0 0 Z " fill="#DB0AEF" transform="translate(1135,977)"/>
<path d="M0 0 C-2.96687001 1.64826111 -5.65626525 2.44271087 -9 3 C-9 3.66 -9 4.32 -9 5 C-15.625 8.125 -15.625 8.125 -19 7 C-17.4075641 3.8151282 -14.16424285 3.24028639 -11 2 C-9.94232422 1.55720703 -9.94232422 1.55720703 -8.86328125 1.10546875 C-3.36310518 -1.12103506 -3.36310518 -1.12103506 0 0 Z " fill="#D909EE" transform="translate(1020,1119)"/>
<path d="M0 0 C0 3.55151105 -0.54465213 3.93432729 -2.875 6.4375 C-5.1133222 8.85423919 -6.55283527 11.05250939 -8 14 C-10.4375 16.75 -10.4375 16.75 -13 19 C-13.99 19 -14.98 19 -16 19 C-14.77023437 17.57107422 -14.77023437 17.57107422 -13.515625 16.11328125 C-12.42703894 14.84639231 -11.33849976 13.57946309 -10.25 12.3125 C-9.71117187 11.68666016 -9.17234375 11.06082031 -8.6171875 10.41601562 C-5.67847585 6.9934917 -2.79216079 3.5444177 0 0 Z " fill="#9D47D8" transform="translate(668,488)"/>
<path d="M0 0 C0.33 0 0.66 0 1 0 C1.125 5.75 1.125 5.75 0 8 C-0.66 8 -1.32 8 -2 8 C-1.95875 9.175625 -1.9175 10.35125 -1.875 11.5625 C-1.86016365 15.72409674 -2.68829222 19.06487667 -4 23 C-4.33 23 -4.66 23 -5 23 C-5.35482211 15.78528371 -4.1591338 9.87581298 -2 3 C-1.34 3 -0.68 3 0 3 C0 2.01 0 1.02 0 0 Z " fill="#D10CEE" transform="translate(1142,952)"/>
<path d="M0 0 C0.66 0.33 1.32 0.66 2 1 C-6.07744875 10.96355353 -6.07744875 10.96355353 -12 12 C-10.47940093 8.11985064 -8.13921469 6.26093438 -4.875 3.75 C-3.96492188 3.04359375 -3.05484375 2.3371875 -2.1171875 1.609375 C-1.41851562 1.07828125 -0.71984375 0.5471875 0 0 Z " fill="#39216E" transform="translate(87,47)"/>
<path d="M0 0 C7 6 7 6 8 9 C7.34 9 6.68 9 6 9 C4.35 7.35 2.7 5.7 1 4 C1 8.95 1 13.9 1 19 C0.67 19 0.34 19 0 19 C0 12.73 0 6.46 0 0 Z " fill="#9C3FDD" transform="translate(483,632)"/>
<path d="M0 0 C9.41002278 -0.3690205 9.41002278 -0.3690205 14 2 C14 2.33 14 2.66 14 3 C9.38 3 4.76 3 0 3 C0 2.01 0 1.02 0 0 Z " fill="#51207D" transform="translate(950,1)"/>
<path d="M0 0 C-1.98 0.99 -1.98 0.99 -4 2 C-4 2.66 -4 3.32 -4 4 C-6.52475462 5.26237731 -8.31200466 5.09856404 -11.125 5.0625 C-12.03507813 5.05347656 -12.94515625 5.04445313 -13.8828125 5.03515625 C-14.58148437 5.02355469 -15.28015625 5.01195312 -16 5 C-5.13726147 -0.46702377 -5.13726147 -0.46702377 0 0 Z " fill="#CD12EB" transform="translate(961,1137)"/>
<path d="M0 0 C-0.556875 0.268125 -1.11375 0.53625 -1.6875 0.8125 C-4.0645463 1.96607927 -4.0645463 1.96607927 -6.3125 3.625 C-9.69496613 5.35556406 -12.25255262 5.22043808 -16 5 C-11.53321948 1.09156705 -5.86504904 -1.93756084 0 0 Z " fill="#D00DEB" transform="translate(1000,1128)"/>
<path d="M0 0 C-1.5577308 3.82352106 -3.91595258 6.29205593 -7 9 C-7.99 9 -8.98 9 -10 9 C-8.5124715 4.98367305 -4.56813239 0 0 0 Z " fill="#D209ED" transform="translate(1070,1083)"/>
<path d="M0 0 C0 0.99 0 1.98 0 3 C-1.66666667 4.66666667 -3.33333333 6.33333333 -5 8 C-5.350625 8.886875 -5.70125 9.77375 -6.0625 10.6875 C-7 13 -7 13 -9.125 14.3125 C-10.053125 14.6528125 -10.053125 14.6528125 -11 15 C-10.34 13.02 -9.68 11.04 -9 9 C-8.34 9 -7.68 9 -7 9 C-6.773125 8.443125 -6.54625 7.88625 -6.3125 7.3125 C-4.64103234 4.36753316 -2.44723648 2.31843456 0 0 Z " fill="#261A54" transform="translate(58,75)"/>
<path d="M0 0 C0 4.03223106 -1.64129026 5.80880447 -4 9 C-4.99 9.495 -4.99 9.495 -6 10 C-6.33 10.99 -6.66 11.98 -7 13 C-9.0625 13.6875 -9.0625 13.6875 -11 14 C-7.80173015 8.88276824 -4.04165813 4.47307108 0 0 Z " fill="#9E47D9" transform="translate(790,343)"/>
<path d="M0 0 C2.35980046 3.5397007 2.58600808 5.99106288 3.125 10.1875 C3.29257813 11.45980469 3.46015625 12.73210938 3.6328125 14.04296875 C3.75398437 15.01878906 3.87515625 15.99460937 4 17 C2 16 2 16 0.875 13 C-0.27521462 8.67770912 -0.18124209 4.44043127 0 0 Z " fill="#4F2180" transform="translate(8,973)"/>
<path d="M0 0 C0.33 0 0.66 0 1 0 C1.33 2.64 1.66 5.28 2 8 C2.99 8 3.98 8 5 8 C3.63016497 11.16115776 3.0109362 11.9927092 0 14 C0 9.38 0 4.76 0 0 Z " fill="#A359DD" transform="translate(482,501)"/>
<path d="M0 0 C0.66 0 1.32 0 2 0 C1.91291331 1.45945288 1.80473093 2.91765868 1.6875 4.375 C1.62949219 5.18710938 1.57148438 5.99921875 1.51171875 6.8359375 C1 9 1 9 -2 11 C-2 8.69 -2 6.38 -2 4 C-1.34 4 -0.68 4 0 4 C0 2.68 0 1.36 0 0 Z " fill="#3F2679" transform="translate(16,140)"/>
<path d="M0 0 C-0.99 0.33 -1.98 0.66 -3 1 C-3 1.66 -3 2.32 -3 3 C-6.63 3.66 -10.26 4.32 -14 5 C-13.67 4.34 -13.34 3.68 -13 3 C-11.68 3 -10.36 3 -9 3 C-9 2.34 -9 1.68 -9 1 C-5.92677456 0.08941469 -3.19902639 -0.08886184 0 0 Z " fill="#241549" transform="translate(175,5)"/>
<path d="M0 0 C2.07717042 3.42122186 2.07717042 3.42122186 1.75 5.875 C1.5025 6.57625 1.255 7.2775 1 8 C0.649375 9.0725 0.29875 10.145 -0.0625 11.25 C-0.371875 12.1575 -0.68125 13.065 -1 14 C-1.33 14 -1.66 14 -2 14 C-1.85970581 11.8537974 -1.71261836 9.70803782 -1.5625 7.5625 C-1.48128906 6.36753906 -1.40007813 5.17257813 -1.31640625 3.94140625 C-1 1 -1 1 0 0 Z " fill="#3E2571" transform="translate(7,169)"/>
<path d="M0 0 C0.33 0 0.66 0 1 0 C0.14285714 8.57142857 0.14285714 8.57142857 -2 12 C-2.99 12 -3.98 12 -5 12 C-4.67 10.68 -4.34 9.36 -4 8 C-3.34 8 -2.68 8 -2 8 C-2 6.68 -2 5.36 -2 4 C-1.34 4 -0.68 4 0 4 C0 2.68 0 1.36 0 0 Z " fill="#563CA1" transform="translate(23,127)"/>
<path d="M0 0 C0 3.10551666 -0.5393715 4.35261084 -2 7 C-2.66 7 -3.32 7 -4 7 C-4 7.66 -4 8.32 -4 9 C-4.66 9 -5.32 9 -6 9 C-5.37344168 6.07606119 -4.5838192 3.55170871 -3 1 C-2.01 0.67 -1.02 0.34 0 0 Z " fill="#DA08F1" transform="translate(1113,1031)"/>
<path d="M0 0 C0 4.61590466 -1.44028719 6.4136342 -4.625 9.75 C-5.40875 10.4925 -6.1925 11.235 -7 12 C-7.66 11.67 -8.32 11.34 -9 11 C-6.03 7.37 -3.06 3.74 0 0 Z " fill="#9E49D9" transform="translate(830,295)"/>
<path d="M0 0 C-3.63 1.98 -7.26 3.96 -11 6 C-11.66 5.34 -12.32 4.68 -13 4 C-11.40233897 3.13372601 -9.79660056 2.28233535 -8.1875 1.4375 C-7.29417969 0.96183594 -6.40085938 0.48617188 -5.48046875 -0.00390625 C-3 -1 -3 -1 0 0 Z " fill="#2F2162" transform="translate(147,15)"/>
<path d="M0 0 C0.66 0.33 1.32 0.66 2 1 C2 1.66 2 2.32 2 3 C2.66 3 3.32 3 4 3 C5.7143618 4.95927063 7.38405168 6.95880212 9 9 C8.67 9.66 8.34 10.32 8 11 C5.03 8.03 2.06 5.06 -1 2 C-0.67 1.34 -0.34 0.68 0 0 Z " fill="#A836D2" transform="translate(842,837)"/>
<path d="M0 0 C0 4.10202215 -1.4911355 5.81306402 -4 9 C-6.75 10.375 -6.75 10.375 -9 11 C-8.06558465 9.72689688 -7.12732889 8.456612 -6.1875 7.1875 C-5.66542969 6.47980469 -5.14335938 5.77210938 -4.60546875 5.04296875 C-3.16871123 3.21468607 -1.68184237 1.60103312 0 0 Z " fill="#A14CD9" transform="translate(632,531)"/>
<path d="M0 0 C0.66 0 1.32 0 2 0 C2 0.99 2 1.98 2 3 C1.34 3 0.68 3 0 3 C-0.0825 3.61875 -0.165 4.2375 -0.25 4.875 C-1 7 -1 7 -3.0625 8.25 C-3.701875 8.4975 -4.34125 8.745 -5 9 C-3.125 4.25 -3.125 4.25 -2 2 C-1.34 2 -0.68 2 0 2 C0 1.34 0 0.68 0 0 Z " fill="#31206B" transform="translate(45,90)"/>
<path d="M0 0 C-0.639375 0.28875 -1.27875 0.5775 -1.9375 0.875 C-4.15206079 1.82823451 -4.15206079 1.82823451 -5 4 C-7.31 4 -9.62 4 -12 4 C-11 2 -11 2 -8.8125 0.875 C-5.73230669 -0.08328236 -3.20690052 -0.14915816 0 0 Z " fill="#2C1C58" transform="translate(160,10)"/>
<path d="M0 0 C-1 3 -1 3 -2.8125 4.25 C-5.33943414 5.11637742 -6.52221994 4.88492145 -9 4 C-8.01 3.67 -7.02 3.34 -6 3 C-6 2.34 -6 1.68 -6 1 C-3.92446352 0.4465236 -2.15634036 0 0 0 Z " fill="#563398" transform="translate(111,33)"/>
<path d="M0 0 C0 3.8445159 -1.01662434 5.85272839 -3.5 8.75 C-5 10 -5 10 -7 10 C-5.33248852 6.05860922 -2.77289351 3.2107188 0 0 Z " fill="#9F48D9" transform="translate(620,545)"/>
<path d="M0 0 C-0.639375 0.309375 -1.27875 0.61875 -1.9375 0.9375 C-3.93610821 1.8345163 -3.93610821 1.8345163 -5 3 C-6.66617115 3.04063832 -8.33388095 3.042721 -10 3 C-9 1 -9 1 -6.125 -0.1875 C-3 -1 -3 -1 0 0 Z " fill="#D210E9" transform="translate(1020,1119)"/>
<path d="M0 0 C0 3.19219704 -0.23605791 4.39608549 -2 7 C-4.625 8.25 -4.625 8.25 -7 9 C-6.02180976 7.68677212 -5.0424189 6.37443848 -4.0625 5.0625 C-3.51722656 4.33160156 -2.97195313 3.60070312 -2.41015625 2.84765625 C-1 1 -1 1 0 0 Z " fill="#9E48D8" transform="translate(778,357)"/>
<path d="M0 0 C0.66 0.33 1.32 0.66 2 1 C-0.31 3.64 -2.62 6.28 -5 9 C-5 4.61031544 -2.87194899 3.23094261 0 0 Z " fill="#994CD9" transform="translate(647,319)"/>
<path d="M0 0 C1.32 0.33 2.64 0.66 4 1 C0.535 3.97 0.535 3.97 -3 7 C-3.66 6.67 -4.32 6.34 -5 6 C-3.35 4.02 -1.7 2.04 0 0 Z " fill="#FAE8FE" transform="translate(676,287)"/>
<path d="M0 0 C0 0.66 0 1.32 0 2 C0.66 2 1.32 2 2 2 C2 2.66 2 3.32 2 4 C-0.92879371 3.37240135 -3.36095629 2.41377341 -6 1 C-4 0 -4 0 0 0 Z " fill="#BE1DFA" transform="translate(188,1138)"/>
<path d="M0 0 C2.31 1.98 4.62 3.96 7 6 C6.34 6.66 5.68 7.32 5 8 C2.5 5.6875 2.5 5.6875 0 3 C0 2.01 0 1.02 0 0 Z " fill="#A940D6" transform="translate(681,852)"/>
</svg>
