<svg xmlns="http://www.w3.org/2000/svg" version="1.1" xmlns:xlink="http://www.w3.org/1999/xlink" xmlns:svgjs="http://svgjs.dev/svgjs" width="1000" height="1088" viewBox="0 0 1000 1088"><g transform="matrix(1,0,0,1,-1.0871706496157003,0.44050570436809267)"><svg viewBox="0 0 227 247" data-background-color="#4b91f1" preserveAspectRatio="xMidYMid meet" height="1088" width="1000" xmlns="http://www.w3.org/2000/svg" xmlns:xlink="http://www.w3.org/1999/xlink"><g id="tight-bounds" transform="matrix(1,0,0,1,0.2467878627968787,-0.09999548807087422)"><svg viewBox="0 0 226.5064243997404 247.2" height="247.2" width="226.5064243997404"><g><svg viewBox="0 0 226.5064243997404 247.2" height="247.2" width="226.5064243997404"><g><svg viewBox="0 0 226.5064243997404 247.2" height="247.2" width="226.5064243997404"><g id="textblocktransform"><svg viewBox="0 0 226.5064243997404 247.2" height="247.2" width="226.5064243997404" id="textblock"><g><svg viewBox="0 0 226.5064243997404 247.2" height="247.2" width="226.5064243997404"><g transform="matrix(1,0,0,1,0,0)"><svg width="226.5064243997404" viewBox="1.9800000190734863 -35.939998626708984 34.470001220703125 37.619998931884766" height="247.2" data-palette-color="#915eff"><path d="
                                  M6 -35
                                  L6 1.5
                                  Q6 1.9 6.4 1.9
                                  Q7.2 1.9 8.6 1.4
                                  Q10 0.9 11.2 0.4
                                  Q12.4 -0.1 12.4 -0.5
                                  L12.4 -16.5
                                  L24 1.2
                                  Q24.4 1.8 25 1.8
                                  Q25.8 1.8 27.2 1.3
                                  Q28.6 0.8 29.6 0.4
                                  Q30.6 0 30.6 -0.4
                                  Q30.6 -0.8 30.2 -1.4
                                  L17.2 -19.5
                                  L29.6 -34
                                  Q30 -34.5 30 -34.9
                                  Q30 -35.4 29.2 -35.4
                                  L23.8 -35.4
                                  Q23 -35.4 22.4 -34.7
                                  L12.4 -22.4
                                  L12.4 -34.9
                                  Q12.4 -35.6 11.6 -35.6
                                  L6.8 -35.6
                                  Q6 -35.6 6 -35
                                  Z
                                " opacity="1" transform="matrix(1,0,0,1,0,0)" fill="#915eff" class="wordmark-text-0" data-fill-palette-color="primary" id="text-0"></path></svg></g></svg></g></svg></g></svg></g></svg></g><defs></defs></svg><rect width="226.5064243997404" height="247.2" fill="none" stroke="none" visibility="hidden"></rect></g></svg></g></svg>