<svg xmlns="http://www.w3.org/2000/svg" width="1000" height="1088" viewBox="0 0 1000 1088">
  <g transform="matrix(1,0,0,1,0,0)">
    <svg viewBox="0 0 227 247" preserveAspectRatio="xMidYMid meet" height="1088" width="1000">
      <g transform="matrix(1,0,0,1,0,0)">
        <svg viewBox="0 0 226.5 247.2" height="247.2" width="226.5">
          <g>
            <svg viewBox="0 0 226.5 247.2" height="247.2" width="226.5">
              <g>
                <svg viewBox="0 0 226.5 247.2" height="247.2" width="226.5">
                  <g id="textblocktransform">
                    <svg viewBox="0 0 226.5 247.2" height="247.2" width="226.5" id="textblock">
                      <g>
                        <svg viewBox="0 0 226.5 247.2" height="247.2" width="226.5">
                          <g transform="matrix(1,0,0,1,0,0)">
                            <svg
                              width="226.5"
                              height="247.2"
                              viewBox="2 -36 34 38"
                              data-palette-color="#915eff"
                            >
                              <!-- K LETTER PATH -->
                              <path
                                d="
                                  M6 -35
                                  L6 1.5
                                  Q6 1.9 6.4 1.9
                                  Q7.2 1.9 8.6 1.4
                                  Q10 0.9 11.2 0.4
                                  Q12.4 -0.1 12.4 -0.5
                                  L12.4 -16.5
                                  L24 1.2
                                  Q24.4 1.8 25 1.8
                                  Q25.8 1.8 27.2 1.3
                                  Q28.6 0.8 29.6 0.4
                                  Q30.6 0 30.6 -0.4
                                  Q30.6 -0.8 30.2 -1.4
                                  L17.2 -19.5
                                  L29.6 -34
                                  Q30 -34.5 30 -34.9
                                  Q30 -35.4 29.2 -35.4
                                  L23.8 -35.4
                                  Q23 -35.4 22.4 -34.7
                                  L12.4 -22.4
                                  L12.4 -34.9
                                  Q12.4 -35.6 11.6 -35.6
                                  L6.8 -35.6
                                  Q6 -35.6 6 -35
                                  Z
                                "
                                fill="#915eff"
                                opacity="1"
                                data-fill-palette-color="primary"
                              />
                            </svg>
                          </g>
                        </svg>
                      </g>
                    </svg>
                  </g>
                </svg>
              </g>
            </svg>
          </g>
        </svg>
      </g>
    </svg>
  </g>
</svg>
